<svg height="512" viewBox="0 0 128 128" width="512" xmlns="http://www.w3.org/2000/svg"><g><path d="m102.5 41.568a9.381 9.381 0 0 1 -18.761 0c0-5.181 9.38-16.068 9.38-16.068s9.381 10.887 9.381 16.068z" fill="#d993f6"/><path d="m91.667 79.6h-54.715a11.452 11.452 0 0 0 0 22.9h54.715z" fill="#a3a4d0"/><path d="m70.789 81.623h22.904v18.851h-22.904z" fill="#f7598f" transform="matrix(0 1 -1 0 173.289 8.807)"/><path d="m51.938 81.623h22.904v18.851h-22.904z" fill="#d93672" transform="matrix(0 1 -1 0 154.438 27.658)"/><path d="m67.543 44.261-38.689 38.689a11.452 11.452 0 0 0 16.2 16.2l38.685-38.693z" fill="#d8d9fb"/><path d="m57.524 49.598h22.904v18.851h-22.904z" fill="#fedd55" transform="matrix(.707 .707 -.707 .707 61.939 -31.486)"/><path d="m44.195 62.928h22.904v18.851h-22.904z" fill="#fd9f29" transform="matrix(.707 .707 -.707 .707 67.46 -18.156)"/><path d="m25.5 36.333v54.715a11.452 11.452 0 0 0 22.9 0v-54.715z" fill="#f2f2fc"/><path d="m25.5 36.333h22.904v18.851h-22.904z" fill="#83e786"/><path d="m25.5 55.184h22.904v18.851h-22.904z" fill="#60c883"/><path d="m36.952 88.591a3.836 3.836 0 1 0 3.835 3.836 3.841 3.841 0 0 0 -3.835-3.836z" fill="#a3a4d0"/></g></svg>